Coordinates
version=1
nRows=8
nColumns=63
inDegrees=yes

Units are S.I. units (second, meters, Newtons, ...)
If the header above contains a line with 'inDegrees', this indicates whether rotational values are in degrees (yes) or radians (no).

endheader
time	pelvis_tilt	pelvis_list	pelvis_rotation	pelvis_tx	pelvis_ty	pelvis_tz	hip_flexion_r	hip_adduction_r	hip_rotation_r	knee_angle_r	knee_angle_r_beta	ankle_angle_r	subtalar_angle_r	mtp_angle_r	hip_flexion_l	hip_adduction_l	hip_rotation_l	knee_angle_l	knee_angle_l_beta	ankle_angle_l	subtalar_angle_l	mtp_angle_l	L5_S1_Flex_Ext	L5_S1_Lat_Bending	L5_S1_axial_rotation	L4_L5_Flex_Ext	L4_L5_Lat_Bending	L4_L5_axial_rotation	L3_L4_Flex_Ext	L3_L4_Lat_Bending	L3_L4_axial_rotation	L2_L3_Flex_Ext	L2_L3_Lat_Bending	L2_L3_axial_rotation	L1_L2_Flex_Ext	L1_L2_Lat_Bending	L1_L2_axial_rotation	L1_T12_Flex_Ext	L1_T12_Lat_Bending	L1_T12_axial_rotation	Abs_r3	Abs_r2	Abs_r1	Abs_t1	Abs_t2	neck_flexion	neck_bending	neck_rotation	arm_flex_r	arm_add_r	arm_rot_r	elbow_flex_r	pro_sup_r	wrist_flex_r	wrist_dev_r	arm_flex_l	arm_add_l	arm_rot_l	elbow_flex_l	pro_sup_l	wrist_flex_l	wrist_dev_l
0.000000	-3.057018	-3.097798	83.142188	0.236246	0.792929	0.709131	9.074709	-2.550368	1.909790	9.559291	0.166841	26.667433	9.810326	0.000000	5.040696	1.907753	-10.064081	1.021871	0.017835	21.945304	-1.419224	0.000000	0.311282	-0.287507	1.067965	0.578081	-0.382384	1.134713	0.511405	-0.699044	1.134713	0.355764	-0.699044	0.934469	0.289056	-0.586284	0.867721	0.177866	-0.445348	0.800974	2.223454	-3.252337	5.939700	0.000000	0.000000	28.126417	1.035533	2.825486	12.614949	-8.889946	48.280298	48.636583	88.550842	17.856829	4.056883	8.402219	-13.244872	39.796773	56.357249	83.441340	23.400362	3.674401
0.030303	-2.943651	-2.556809	83.446921	0.236996	0.794417	0.705245	7.621536	-2.487618	2.658657	8.600697	0.150110	25.765932	8.285395	0.000000	4.107153	1.858382	-9.028798	1.008304	0.017598	21.257437	-2.390556	0.000000	0.301175	-0.287191	0.917583	0.559313	-0.381964	0.974932	0.494801	-0.698277	0.974932	0.344213	-0.698277	0.802885	0.279672	-0.585640	0.745536	0.172092	-0.444859	0.688187	2.151266	-3.248764	5.103320	0.000000	0.000000	28.120946	1.908222	3.542132	12.852398	-8.547686	53.546727	48.012158	86.200931	17.145371	4.179646	7.329694	-13.819602	41.168183	55.876828	81.687342	20.281443	1.592466
0.060606	-2.834086	-2.112979	83.727627	0.237494	0.795647	0.702280	6.448699	-2.424646	3.173370	7.805419	0.136230	25.094533	7.180145	0.000000	3.359278	1.810310	-8.192881	1.000896	0.017469	20.708155	-3.161928	0.000000	0.292190	-0.282847	0.800090	0.542627	-0.376187	0.850096	0.480040	-0.687714	0.850096	0.333944	-0.687714	0.700079	0.271328	-0.576782	0.650073	0.166958	-0.438130	0.600068	2.087087	-3.199623	4.449861	0.000000	0.000000	28.115879	2.578933	4.133451	12.936352	-8.222374	56.936326	47.539358	84.882658	16.528646	4.374191	6.518455	-14.251091	42.153735	55.530383	80.169458	17.679783	0.008545
0.090909	-2.729197	-1.758069	83.982636	0.237769	0.796635	0.700143	5.530822	-2.362301	3.483140	7.158587	0.124941	24.629544	6.448807	0.000000	2.780098	1.764243	-7.538410	0.998851	0.017433	20.286303	-3.755089	0.000000	0.284274	-0.275016	0.713143	0.527926	-0.365771	0.757715	0.467035	-0.668674	0.757715	0.324897	-0.668674	0.624000	0.263977	-0.560813	0.579429	0.162434	-0.426000	0.534857	2.030544	-3.111036	3.966288	0.000000	0.000000	28.111395	3.065754	4.609213	12.894317	-7.910966	58.723789	47.168648	84.387265	15.983803	4.618176	5.951007	-14.547313	42.822089	55.276254	78.882638	15.538536	-1.126429
0.121212	-2.629856	-1.483839	84.210275	0.237849	0.797395	0.698741	4.842530	-2.301431	3.617176	6.645329	0.115983	24.347273	6.045613	0.000000	2.352641	1.720886	-7.047468	1.001373	0.017477	19.980727	-4.191784	0.000000	0.277376	-0.264239	0.654398	0.515115	-0.351438	0.695298	0.455701	-0.642472	0.695298	0.317013	-0.642472	0.572598	0.257571	-0.538837	0.531698	0.158493	-0.409307	0.490798	1.981267	-2.989128	3.639564	0.000000	0.000000	28.107676	3.386773	4.979187	12.753802	-7.610419	59.183806	46.850492	84.505996	15.487992	4.889256	5.609858	-14.716240	43.241904	55.072780	77.821833	13.800854	-1.861521
0.151515	-2.536936	-1.282050	84.408872	0.237763	0.797941	0.697980	4.358447	-2.242885	3.604688	6.250775	0.109097	24.224026	5.924794	0.000000	2.059935	1.680948	-6.702137	1.007665	0.017587	19.780273	-4.493761	0.000000	0.271442	-0.251058	0.621510	0.504095	-0.333908	0.660354	0.445952	-0.610423	0.660354	0.310231	-0.610423	0.543821	0.252061	-0.511958	0.504977	0.155102	-0.388889	0.466132	1.938884	-2.840022	3.456652	0.000000	0.000000	28.104904	3.560080	5.253144	12.542314	-7.317689	58.591069	46.535356	85.030092	15.018364	5.165089	5.477514	-14.765845	43.481839	54.878299	76.981994	12.409890	-2.245798
0.181818	-2.451308	-1.144462	84.576757	0.237539	0.798287	0.697767	4.053199	-2.187511	3.474885	5.960055	0.104023	24.236111	6.040582	0.000000	1.885005	1.645133	-6.484496	1.016930	0.017749	19.673785	-4.682767	0.000000	0.266422	-0.236014	0.612136	0.494772	-0.313899	0.650394	0.437704	-0.573845	0.650394	0.304493	-0.573845	0.535619	0.247399	-0.481280	0.497360	0.152233	-0.365586	0.459102	1.903024	-2.669840	3.404516	0.000000	0.000000	28.103260	3.603763	5.440853	12.287362	-7.029730	57.220271	46.173703	85.750797	14.552068	5.423330	5.536483	-14.704101	43.610554	54.651149	76.358070	11.308797	-2.328326
0.212121	-2.373847	-1.062836	84.712258	0.237206	0.798448	0.698008	3.901409	-2.136159	3.256977	5.758298	0.100501	24.359836	6.347209	0.000000	1.810879	1.614150	-6.376629	1.028373	0.017949	19.650111	-4.780550	0.000000	0.262262	-0.219648	0.623932	0.487047	-0.292132	0.662927	0.430871	-0.534053	0.662927	0.299740	-0.534053	0.545940	0.243537	-0.447907	0.506944	0.149857	-0.340235	0.467949	1.873314	-2.484706	3.470120	0.000000	0.000000	28.102924	3.535910	5.552084	12.016454	-6.743499	55.346103	45.715998	86.459354	14.066255	5.641636	5.769270	-14.538981	43.696708	54.349671	75.945012	10.440727	-2.158172
